<?xml version="1.0" encoding="UTF-8"?>
<svg version="1.1" xmlns="http://www.w3.org/2000/svg" width="94" height="96">
<path d="M0 0 C9.80541753 -0.11596607 19.61067131 -0.20475187 29.41663551 -0.25906086 C33.97022386 -0.28512967 38.52334226 -0.32047752 43.07666016 -0.37719727 C47.47278827 -0.43161481 51.86846503 -0.46144098 56.26490402 -0.47438622 C57.94025145 -0.4836087 59.6155748 -0.50161856 61.29072952 -0.52865028 C63.64178651 -0.5650723 65.99099041 -0.56994018 68.34228516 -0.56762695 C69.37591187 -0.59459152 69.37591187 -0.59459152 70.43041992 -0.62210083 C75.973782 -0.56327743 78.26684666 1.19052633 82 5 C82.75 7.5 82.75 7.5 83 10 C83.32916412 10.75041565 83.65832825 11.5008313 83.99746704 12.27398682 C85.14211707 15.38643418 85.26678006 17.80445332 85.29052734 21.11621094 C85.30328705 22.32807068 85.31604675 23.53993042 85.32919312 24.78851318 C85.33141876 26.09064758 85.33364441 27.39278198 85.3359375 28.734375 C85.34237234 30.09572487 85.34910121 31.45707337 85.35610962 32.81842041 C85.36806492 35.66966961 85.37179243 38.52079783 85.37060547 41.37207031 C85.37040276 45.00453434 85.3976611 48.63621173 85.43214989 52.26848984 C85.45452343 55.08086624 85.45843979 57.89305676 85.45738602 60.705513 C85.46085802 62.68896799 85.48246 64.67236495 85.50448608 66.65570068 C85.46721888 74.07169151 84.6689005 79.5336173 81 86 C80.32837976 87.33084502 79.66031453 88.66350947 79 90 C78.34 90 77.68 90 77 90 C77 90.66 77 91.32 77 92 C72.3730001 92.72436049 67.86211764 93.16369227 63.18188477 93.30053711 C61.86684464 93.33984848 60.5518045 93.37915985 59.19691467 93.41966248 C53.22695763 93.57499134 47.25660319 93.70983654 41.28588867 93.83227539 C38.13808653 93.89857406 34.99144352 93.98197973 31.84448242 94.08032227 C28.02415368 94.19955908 24.20422227 94.28838767 20.38264275 94.35601997 C18.93483471 94.38662732 17.48720557 94.42768047 16.04001045 94.47974968 C8.27377667 94.75076949 2.40890362 94.89147024 -3.68641663 89.6889801 C-5.18262034 87.7651903 -5.50297289 86.36535851 -6 84 C-6.34463287 83.39364716 -6.68926575 82.78729431 -7.04434204 82.16256714 C-8.36269349 79.17925759 -8.2695068 76.6553878 -8.29052734 73.39892578 C-8.29724457 72.74473663 -8.30396179 72.09054749 -8.31088257 71.41653442 C-8.32984043 69.25938263 -8.33378561 67.10254235 -8.3359375 64.9453125 C-8.34236712 63.44082513 -8.3490956 61.93633901 -8.35610962 60.43185425 C-8.36807692 57.27957257 -8.37179103 54.12740044 -8.37060547 50.97509766 C-8.37040234 46.94438647 -8.39769992 42.91438082 -8.43214989 38.88383675 C-8.4544358 35.77648724 -8.4584425 32.66930706 -8.45738602 29.56188583 C-8.45973961 28.07637985 -8.4685496 26.59086902 -8.48405075 25.10544205 C-8.50374615 23.02308633 -8.49786089 20.94224572 -8.48583984 18.85986328 C-8.48868988 17.67723907 -8.49153992 16.49461487 -8.49447632 15.27615356 C-7.89574474 11.30925664 -6.41763501 9.15952615 -4 6 C-3.1646875 4.88625 -3.1646875 4.88625 -2.3125 3.75 C-1.6628125 2.88375 -1.6628125 2.88375 -1 2 C-0.67 1.34 -0.34 0.68 0 0 Z M56 27 C56 38.88 56 50.76 56 63 C56.33 63 56.66 63 57 63 C57 51.12 57 39.24 57 27 C56.67 27 56.34 27 56 27 Z M21 28 C21 28.33 21 28.66 21 29 C32.22 29 43.44 29 55 29 C55 28.67 55 28.34 55 28 C43.78 28 32.56 28 21 28 Z M18 29 C18 30.98 18 32.96 18 35 C18.33 35 18.66 35 19 35 C19 33.02 19 31.04 19 29 C18.67 29 18.34 29 18 29 Z M20 30 C20 31.65 20 33.3 20 35 C22.93447357 37.93447357 26.18259456 37.46158423 30.125 37.625 C30.87910156 37.66367187 31.63320313 37.70234375 32.41015625 37.7421875 C34.27303184 37.83651031 36.13648255 37.91934662 38 38 C36.29554267 42.86176161 34.07140584 44.82430344 30 48 C28.64631404 49.31266518 27.31200404 50.64567325 26 52 C23.39779846 54.66566987 21.10492046 56.93005302 18 59 C18.78130071 61.49552484 18.78130071 61.49552484 20 64 C23.39252049 65.13084016 24.63494672 65.05885741 28 64 C30.30322688 62.24479349 30.30322688 62.24479349 32.42578125 59.96484375 C33.61977539 58.75151367 33.61977539 58.75151367 34.83789062 57.51367188 C36.06282227 56.2384668 36.06282227 56.2384668 37.3125 54.9375 C38.56643555 53.65649414 38.56643555 53.65649414 39.84570312 52.34960938 C41.90642344 50.24178688 43.95723209 48.12520151 46 46 C46.06058594 47.27617188 46.12117188 48.55234375 46.18359375 49.8671875 C46.26799568 51.53647016 46.35264386 53.20574037 46.4375 54.875 C46.47681641 55.71675781 46.51613281 56.55851562 46.55664062 57.42578125 C46.59853516 58.23144531 46.64042969 59.03710938 46.68359375 59.8671875 C46.72025146 60.61081543 46.75690918 61.35444336 46.79467773 62.12060547 C46.89955865 64.08864312 46.89955865 64.08864312 48 66 C51.79547921 65.03223902 51.79547921 65.03223902 55 63 C55.0884283 60.55196233 55.11535972 58.13155206 55.09765625 55.68359375 C55.09664917 55.03588013 55.09564209 54.3881665 55.09460449 53.7208252 C55.08935843 51.29303221 55.07539725 48.86526439 55.0625 46.4375 C55.041875 41.013125 55.02125 35.58875 55 30 C43.45 30 31.9 30 20 30 Z M17 61 C18 63 18 63 18 63 Z M18 63 C19 65 19 65 19 65 Z M55 63 C56 65 56 65 56 65 Z " fill="#352EDB" transform="translate(8,0)"/>
<path d="M0 0 C21.12 0 42.24 0 64 0 C64 0.33 64 0.66 64 1 C42.88 1 21.76 1 0 1 C0 0.67 0 0.34 0 0 Z " fill="#000087" transform="translate(14,94)"/>
<path d="M0 0 C4.29 0 8.58 0 13 0 C13 1.98 13 3.96 13 6 C11 7.875 11 7.875 9 9 C8.34 8.67 7.68 8.34 7 8 C8.875 4.125 8.875 4.125 10 3 C6.37 2.67 2.74 2.34 -1 2 C-0.67 1.34 -0.34 0.68 0 0 Z " fill="#352EDD" transform="translate(31,38)"/>
<path d="M0 0 C1.2065625 0.0309375 1.2065625 0.0309375 2.4375 0.0625 C0.79580472 2.08304804 -0.87161778 4.08293058 -2.5625 6.0625 C-2.8925 6.0625 -3.2225 6.0625 -3.5625 6.0625 C-3.605221 4.39638095 -3.60313832 2.72867115 -3.5625 1.0625 C-2.5625 0.0625 -2.5625 0.0625 0 0 Z " fill="#1817CD" transform="translate(32.5625,51.9375)"/>
<path d="M0 0 C0.33 0 0.66 0 1 0 C1 5.94 1 11.88 1 18 C0.67 18 0.34 18 0 18 C0 12.06 0 6.12 0 0 Z " fill="#0303F7" transform="translate(56,46)"/>
<path d="M0 0 C0.33 0.66 0.66 1.32 1 2 C1.66 2.33 2.32 2.66 3 3 C1.68 3.99 0.36 4.98 -1 6 C-1.66 5.67 -2.32 5.34 -3 5 C-1.125 1.125 -1.125 1.125 0 0 Z " fill="#2320EC" transform="translate(41,41)"/>
<path d="" fill="#0000FF" transform="translate(0,0)"/>
<path d="" fill="#1515FF" transform="translate(0,0)"/>
<path d="M0 0 C0.99 0.495 0.99 0.495 2 1 C1.01 1.495 1.01 1.495 0 2 C0 1.34 0 0.68 0 0 Z " fill="#3115E2" transform="translate(34,62)"/>
<path d="M0 0 C0.99 0.495 0.99 0.495 2 1 C1.01 1.495 1.01 1.495 0 2 C0 1.34 0 0.68 0 0 Z " fill="#3115E2" transform="translate(36,60)"/>
<path d="M0 0 C0.99 0.495 0.99 0.495 2 1 C1.01 1.495 1.01 1.495 0 2 C0 1.34 0 0.68 0 0 Z " fill="#31318D" transform="translate(38,58)"/>
<path d="M0 0 C0.99 0.495 0.99 0.495 2 1 C1.01 1.495 1.01 1.495 0 2 C0 1.34 0 0.68 0 0 Z " fill="#151555" transform="translate(45,51)"/>
<path d="M0 0 C0.99 0.495 0.99 0.495 2 1 C1.01 1.495 1.01 1.495 0 2 C0 1.34 0 0.68 0 0 Z " fill="#2A2AFF" transform="translate(47,49)"/>
<path d="M0 0 C0.99 0.495 0.99 0.495 2 1 C1.01 1.495 1.01 1.495 0 2 C0 1.34 0 0.68 0 0 Z " fill="#3115E2" transform="translate(49,47)"/>
<path d="M0 0 C0.99 0.495 0.99 0.495 2 1 C1.01 1.495 1.01 1.495 0 2 C0 1.34 0 0.68 0 0 Z " fill="#3F157F" transform="translate(51,45)"/>
<path d="" fill="#1515FF" transform="translate(0,0)"/>
<path d="" fill="#0000FF" transform="translate(0,0)"/>
<path d="M0 0 C0.99 0.495 0.99 0.495 2 1 C1.01 1.495 1.01 1.495 0 2 C0 1.34 0 0.68 0 0 Z " fill="#31318D" transform="translate(5,2)"/>
<path d="M0 0 C2 1 2 1 2 1 Z " fill="#4A4AFF" transform="translate(78,93)"/>
<path d="" fill="#0000BF" transform="translate(0,0)"/>
<path d="" fill="#0000FF" transform="translate(0,0)"/>
<path d="" fill="#0000FF" transform="translate(0,0)"/>
<path d="" fill="#1F1FFF" transform="translate(0,0)"/>
<path d="" fill="#0000FF" transform="translate(0,0)"/>
<path d="" fill="#0000FF" transform="translate(0,0)"/>
<path d="" fill="#00007F" transform="translate(0,0)"/>
<path d="" fill="#0000FF" transform="translate(0,0)"/>
<path d="" fill="#5500AA" transform="translate(0,0)"/>
<path d="" fill="#5555FF" transform="translate(0,0)"/>
<path d="" fill="#0000FF" transform="translate(0,0)"/>
<path d="" fill="#3F3FFF" transform="translate(0,0)"/>
<path d="" fill="#5555FF" transform="translate(0,0)"/>
<path d="" fill="#3F3FFF" transform="translate(0,0)"/>
<path d="" fill="#3F3FFF" transform="translate(0,0)"/>
<path d="" fill="#3F3FFF" transform="translate(0,0)"/>
<path d="" fill="#0000FF" transform="translate(0,0)"/>
<path d="" fill="#00007F" transform="translate(0,0)"/>
<path d="" fill="#0000FF" transform="translate(0,0)"/>
<path d="" fill="#0000FF" transform="translate(0,0)"/>
<path d="" fill="#0000FF" transform="translate(0,0)"/>
<path d="" fill="#0000FF" transform="translate(0,0)"/>
<path d="" fill="#000000" transform="translate(0,0)"/>
<path d="" fill="#0000FF" transform="translate(0,0)"/>
<path d="" fill="#0000FF" transform="translate(0,0)"/>
<path d="" fill="#0000FF" transform="translate(0,0)"/>
<path d="" fill="#0000FF" transform="translate(0,0)"/>
<path d="" fill="#0000FF" transform="translate(0,0)"/>
<path d="" fill="#3F3FFF" transform="translate(0,0)"/>
</svg>
